<mxfile host="app.diagrams.net" modified="2021-03-25T13:12:07.487Z" agent="5.0 (Windows NT 10.0; Win64; x64) AppleWebKit/537.36 (KHTML, like Gecko) Chrome/88.0.4324.104 Safari/537.36" etag="4_RwX57O4VMduXiq-RxK" version="14.5.1" type="github">
  <diagram id="bPf3pXgbFh8YEaP7SRsN" name="Page-1">
    <mxGraphModel dx="870" dy="595" grid="1" gridSize="10" guides="1" tooltips="1" connect="1" arrows="1" fold="1" page="1" pageScale="1" pageWidth="827" pageHeight="1169" math="0" shadow="0">
      <root>
        <mxCell id="0" />
        <mxCell id="1" parent="0" />
        <mxCell id="kcykgU5ibcjD2GqjcL-r-1" value="" style="ellipse;whiteSpace=wrap;html=1;aspect=fixed;" vertex="1" parent="1">
          <mxGeometry x="414" y="270" width="60" height="60" as="geometry" />
        </mxCell>
        <mxCell id="kcykgU5ibcjD2GqjcL-r-2" value="" style="ellipse;whiteSpace=wrap;html=1;aspect=fixed;" vertex="1" parent="1">
          <mxGeometry x="80" y="460" width="60" height="60" as="geometry" />
        </mxCell>
        <mxCell id="kcykgU5ibcjD2GqjcL-r-3" value="" style="ellipse;whiteSpace=wrap;html=1;aspect=fixed;" vertex="1" parent="1">
          <mxGeometry x="330" y="140" width="60" height="60" as="geometry" />
        </mxCell>
        <mxCell id="kcykgU5ibcjD2GqjcL-r-4" value="" style="ellipse;whiteSpace=wrap;html=1;aspect=fixed;" vertex="1" parent="1">
          <mxGeometry x="70" y="360" width="60" height="60" as="geometry" />
        </mxCell>
        <mxCell id="kcykgU5ibcjD2GqjcL-r-5" value="" style="ellipse;whiteSpace=wrap;html=1;aspect=fixed;" vertex="1" parent="1">
          <mxGeometry x="250" y="270" width="60" height="60" as="geometry" />
        </mxCell>
        <mxCell id="kcykgU5ibcjD2GqjcL-r-11" value="" style="endArrow=classic;html=1;curved=1;strokeWidth=4;" edge="1" parent="1">
          <mxGeometry width="50" height="50" relative="1" as="geometry">
            <mxPoint x="160" y="230" as="sourcePoint" />
            <mxPoint x="210" y="180" as="targetPoint" />
            <Array as="points">
              <mxPoint x="180" y="190" />
            </Array>
          </mxGeometry>
        </mxCell>
        <mxCell id="kcykgU5ibcjD2GqjcL-r-12" value="" style="endArrow=none;dashed=1;html=1;strokeWidth=4;" edge="1" parent="1">
          <mxGeometry width="50" height="50" relative="1" as="geometry">
            <mxPoint x="230" y="450" as="sourcePoint" />
            <mxPoint x="650" y="450" as="targetPoint" />
          </mxGeometry>
        </mxCell>
      </root>
    </mxGraphModel>
  </diagram>
</mxfile>
